<?xml version="1.0" encoding="UTF-8" standalone="no"?>
<!DOCTYPE svg PUBLIC "-//W3C//DTD SVG 1.1//EN"
 "http://www.w3.org/Graphics/SVG/1.1/DTD/svg11.dtd">
<!-- Generated by graphviz version 2.47.0 (20210316.0004)
 -->
<!-- Title: dependencies Pages: 1 -->
<svg width="516pt" height="284pt"
 viewBox="0.00 0.00 516.00 284.00" xmlns="http://www.w3.org/2000/svg" xmlns:xlink="http://www.w3.org/1999/xlink">
<g id="graph0" class="graph" transform="scale(1 1) rotate(0) translate(4 280)">
<title>dependencies</title>
<polygon fill="white" stroke="transparent" points="-4,4 -4,-280 512,-280 512,4 -4,4"/>
<text text-anchor="start" x="233.01" y="-42.4" font-family="Times-12" font-weight="bold" font-size="14.00">Legend</text>
<polygon fill="#ffffb3" stroke="transparent" points="20,-10 20,-30 40,-30 40,-10 20,-10"/>
<text text-anchor="start" x="43.63" y="-15.4" font-family="Times-12" font-size="14.00"> &#160;Declarations</text>
<polygon fill="#8dd3c7" stroke="transparent" points="133,-10 133,-30 153,-30 153,-10 133,-10"/>
<text text-anchor="start" x="156.73" y="-15.4" font-family="Times-12" font-size="14.00"> &#160;Module</text>
<polygon fill="#80b1d3" stroke="transparent" points="219,-10 219,-30 239,-30 239,-10 219,-10"/>
<text text-anchor="start" x="242.78" y="-15.4" font-family="Times-12" font-size="14.00"> &#160;Bootstrap</text>
<polygon fill="#fdb462" stroke="transparent" points="316,-10 316,-30 336,-30 336,-10 316,-10"/>
<text text-anchor="start" x="339.67" y="-15.4" font-family="Times-12" font-size="14.00"> &#160;Providers</text>
<polygon fill="#fb8072" stroke="transparent" points="412,-10 412,-30 432,-30 432,-10 412,-10"/>
<text text-anchor="start" x="435.73" y="-15.4" font-family="Times-12" font-size="14.00"> &#160;Exports</text>
<g id="clust1" class="cluster">
<title>cluster_AccountModule</title>
<polygon fill="none" stroke="black" stroke-dasharray="1,5" points="8,-70 8,-268 500,-268 500,-70 8,-70"/>
</g>
<g id="clust6" class="cluster">
<title>cluster_AccountModule_providers</title>
<polygon fill="none" stroke="black" points="140,-78 140,-130 492,-130 492,-78 140,-78"/>
</g>
<g id="clust3" class="cluster">
<title>cluster_AccountModule_imports</title>
<polygon fill="none" stroke="black" points="16,-78 16,-130 132,-130 132,-78 16,-78"/>
</g>
<g id="clust4" class="cluster">
<title>cluster_AccountModule_exports</title>
<polygon fill="none" stroke="black" points="159,-208 159,-260 283,-260 283,-208 159,-208"/>
</g>
<!-- UploadModule -->
<g id="node1" class="node">
<title>UploadModule</title>
<polygon fill="#8dd3c7" stroke="black" points="124.26,-122 121.26,-126 100.26,-126 97.26,-122 23.74,-122 23.74,-86 124.26,-86 124.26,-122"/>
<text text-anchor="middle" x="74" y="-99.8" font-family="Times,serif" font-size="14.00">UploadModule</text>
</g>
<!-- AccountModule -->
<g id="node2" class="node">
<title>AccountModule</title>
<polygon fill="#8dd3c7" stroke="black" points="274.48,-187 271.48,-191 250.48,-191 247.48,-187 167.52,-187 167.52,-151 274.48,-151 274.48,-187"/>
<text text-anchor="middle" x="221" y="-164.8" font-family="Times,serif" font-size="14.00">AccountModule</text>
</g>
<!-- UploadModule&#45;&gt;AccountModule -->
<g id="edge1" class="edge">
<title>UploadModule&#45;&gt;AccountModule</title>
<path fill="none" stroke="black" d="M74,-122.11C74,-141.34 74,-169 74,-169 74,-169 157.51,-169 157.51,-169"/>
<polygon fill="black" stroke="black" points="157.51,-172.5 167.51,-169 157.51,-165.5 157.51,-172.5"/>
</g>
<!-- AccountService  -->
<g id="node3" class="node">
<title>AccountService </title>
<polygon fill="#fb8072" stroke="black" points="275.4,-252 166.6,-252 166.6,-216 275.4,-216 275.4,-252"/>
<text text-anchor="middle" x="221" y="-229.8" font-family="Times,serif" font-size="14.00">AccountService </text>
</g>
<!-- AccountModule&#45;&gt;AccountService  -->
<g id="edge2" class="edge">
<title>AccountModule&#45;&gt;AccountService </title>
<path fill="none" stroke="black" stroke-dasharray="5,2" d="M221,-187.11C221,-187.11 221,-205.99 221,-205.99"/>
<polygon fill="black" stroke="black" points="217.5,-205.99 221,-215.99 224.5,-205.99 217.5,-205.99"/>
</g>
<!-- AccountRepository -->
<g id="node4" class="node">
<title>AccountRepository</title>
<ellipse fill="#fdb462" stroke="black" cx="398" cy="-104" rx="86.26" ry="18"/>
<text text-anchor="middle" x="398" y="-99.8" font-family="Times,serif" font-size="14.00">AccountRepository</text>
</g>
<!-- AccountRepository&#45;&gt;AccountModule -->
<g id="edge3" class="edge">
<title>AccountRepository&#45;&gt;AccountModule</title>
<path fill="none" stroke="black" d="M398,-122.11C398,-141.34 398,-169 398,-169 398,-169 284.59,-169 284.59,-169"/>
<polygon fill="black" stroke="black" points="284.59,-165.5 274.59,-169 284.59,-172.5 284.59,-165.5"/>
</g>
<!-- AccountService -->
<g id="node5" class="node">
<title>AccountService</title>
<ellipse fill="#fdb462" stroke="black" cx="221" cy="-104" rx="72.91" ry="18"/>
<text text-anchor="middle" x="221" y="-99.8" font-family="Times,serif" font-size="14.00">AccountService</text>
</g>
<!-- AccountService&#45;&gt;AccountModule -->
<g id="edge4" class="edge">
<title>AccountService&#45;&gt;AccountModule</title>
<path fill="none" stroke="black" d="M221,-122.11C221,-122.11 221,-140.99 221,-140.99"/>
<polygon fill="black" stroke="black" points="217.5,-140.99 221,-150.99 224.5,-140.99 217.5,-140.99"/>
</g>
</g>
</svg>
