<?xml version="1.0" encoding="UTF-8" standalone="no"?>
<!DOCTYPE svg PUBLIC "-//W3C//DTD SVG 1.1//EN"
 "http://www.w3.org/Graphics/SVG/1.1/DTD/svg11.dtd">
<!-- Generated by graphviz version 2.47.0 (20210316.0004)
 -->
<!-- Title: dependencies Pages: 1 -->
<svg width="1194pt" height="284pt"
 viewBox="0.00 0.00 1194.00 284.00" xmlns="http://www.w3.org/2000/svg" xmlns:xlink="http://www.w3.org/1999/xlink">
<g id="graph0" class="graph" transform="scale(1 1) rotate(0) translate(4 280)">
<title>dependencies</title>
<polygon fill="white" stroke="transparent" points="-4,4 -4,-280 1190,-280 1190,4 -4,4"/>
<text text-anchor="start" x="572.01" y="-42.4" font-family="Times-12" font-weight="bold" font-size="14.00">Legend</text>
<polygon fill="#ffffb3" stroke="transparent" points="359,-10 359,-30 379,-30 379,-10 359,-10"/>
<text text-anchor="start" x="382.63" y="-15.4" font-family="Times-12" font-size="14.00"> &#160;Declarations</text>
<polygon fill="#8dd3c7" stroke="transparent" points="472,-10 472,-30 492,-30 492,-10 472,-10"/>
<text text-anchor="start" x="495.73" y="-15.4" font-family="Times-12" font-size="14.00"> &#160;Module</text>
<polygon fill="#80b1d3" stroke="transparent" points="558,-10 558,-30 578,-30 578,-10 558,-10"/>
<text text-anchor="start" x="581.78" y="-15.4" font-family="Times-12" font-size="14.00"> &#160;Bootstrap</text>
<polygon fill="#fdb462" stroke="transparent" points="655,-10 655,-30 675,-30 675,-10 655,-10"/>
<text text-anchor="start" x="678.67" y="-15.4" font-family="Times-12" font-size="14.00"> &#160;Providers</text>
<polygon fill="#fb8072" stroke="transparent" points="751,-10 751,-30 771,-30 771,-10 751,-10"/>
<text text-anchor="start" x="774.73" y="-15.4" font-family="Times-12" font-size="14.00"> &#160;Exports</text>
<g id="clust1" class="cluster">
<title>cluster_AuthModule</title>
<polygon fill="none" stroke="black" stroke-dasharray="1,5" points="8,-70 8,-268 1178,-268 1178,-70 8,-70"/>
</g>
<g id="clust3" class="cluster">
<title>cluster_AuthModule_imports</title>
<polygon fill="none" stroke="black" points="1048,-78 1048,-130 1170,-130 1170,-78 1048,-78"/>
</g>
<g id="clust4" class="cluster">
<title>cluster_AuthModule_exports</title>
<polygon fill="none" stroke="black" points="568,-208 568,-260 674,-260 674,-208 568,-208"/>
</g>
<g id="clust6" class="cluster">
<title>cluster_AuthModule_providers</title>
<polygon fill="none" stroke="black" points="16,-78 16,-130 1040,-130 1040,-78 16,-78"/>
</g>
<!-- AccountModule -->
<g id="node1" class="node">
<title>AccountModule</title>
<polygon fill="#8dd3c7" stroke="black" points="1162.48,-122 1159.48,-126 1138.48,-126 1135.48,-122 1055.52,-122 1055.52,-86 1162.48,-86 1162.48,-122"/>
<text text-anchor="middle" x="1109" y="-99.8" font-family="Times,serif" font-size="14.00">AccountModule</text>
</g>
<!-- AuthModule -->
<g id="node2" class="node">
<title>AuthModule</title>
<polygon fill="#8dd3c7" stroke="black" points="664.55,-187 661.55,-191 640.55,-191 637.55,-187 577.45,-187 577.45,-151 664.55,-151 664.55,-187"/>
<text text-anchor="middle" x="621" y="-164.8" font-family="Times,serif" font-size="14.00">AuthModule</text>
</g>
<!-- AccountModule&#45;&gt;AuthModule -->
<g id="edge1" class="edge">
<title>AccountModule&#45;&gt;AuthModule</title>
<path fill="none" stroke="black" d="M1109,-122.29C1109,-144.21 1109,-178 1109,-178 1109,-178 674.74,-178 674.74,-178"/>
<polygon fill="black" stroke="black" points="674.74,-174.5 664.74,-178 674.74,-181.5 674.74,-174.5"/>
</g>
<!-- AuthService  -->
<g id="node3" class="node">
<title>AuthService </title>
<polygon fill="#fb8072" stroke="black" points="665.98,-252 576.02,-252 576.02,-216 665.98,-216 665.98,-252"/>
<text text-anchor="middle" x="621" y="-229.8" font-family="Times,serif" font-size="14.00">AuthService </text>
</g>
<!-- AuthModule&#45;&gt;AuthService  -->
<g id="edge2" class="edge">
<title>AuthModule&#45;&gt;AuthService </title>
<path fill="none" stroke="black" stroke-dasharray="5,2" d="M621,-187.11C621,-187.11 621,-205.99 621,-205.99"/>
<polygon fill="black" stroke="black" points="617.5,-205.99 621,-215.99 624.5,-205.99 617.5,-205.99"/>
</g>
<!-- AuthService -->
<g id="node4" class="node">
<title>AuthService</title>
<ellipse fill="#fdb462" stroke="black" cx="973" cy="-104" rx="59.11" ry="18"/>
<text text-anchor="middle" x="973" y="-99.8" font-family="Times,serif" font-size="14.00">AuthService</text>
</g>
<!-- AuthService&#45;&gt;AuthModule -->
<g id="edge3" class="edge">
<title>AuthService&#45;&gt;AuthModule</title>
<path fill="none" stroke="black" d="M973,-122.11C973,-141.34 973,-169 973,-169 973,-169 674.87,-169 674.87,-169"/>
<polygon fill="black" stroke="black" points="674.87,-165.5 664.87,-169 674.87,-172.5 674.87,-165.5"/>
</g>
<!-- JwtStrategy -->
<g id="node5" class="node">
<title>JwtStrategy</title>
<ellipse fill="#fdb462" stroke="black" cx="839" cy="-104" rx="56.76" ry="18"/>
<text text-anchor="middle" x="839" y="-99.8" font-family="Times,serif" font-size="14.00">JwtStrategy</text>
</g>
<!-- JwtStrategy&#45;&gt;AuthModule -->
<g id="edge4" class="edge">
<title>JwtStrategy&#45;&gt;AuthModule</title>
<path fill="none" stroke="black" d="M839,-122.03C839,-138.4 839,-160 839,-160 839,-160 674.59,-160 674.59,-160"/>
<polygon fill="black" stroke="black" points="674.59,-156.5 664.59,-160 674.59,-163.5 674.59,-156.5"/>
</g>
<!-- LocalStrategy -->
<g id="node6" class="node">
<title>LocalStrategy</title>
<ellipse fill="#fdb462" stroke="black" cx="699" cy="-104" rx="65.41" ry="18"/>
<text text-anchor="middle" x="699" y="-99.8" font-family="Times,serif" font-size="14.00">LocalStrategy</text>
</g>
<!-- LocalStrategy&#45;&gt;AuthModule -->
<g id="edge5" class="edge">
<title>LocalStrategy&#45;&gt;AuthModule</title>
<path fill="none" stroke="black" d="M649.29,-115.92C649.29,-115.92 649.29,-140.77 649.29,-140.77"/>
<polygon fill="black" stroke="black" points="645.79,-140.77 649.29,-150.77 652.79,-140.77 645.79,-140.77"/>
</g>
<!-- RefreshStrategy -->
<g id="node7" class="node">
<title>RefreshStrategy</title>
<ellipse fill="#fdb462" stroke="black" cx="543" cy="-104" rx="73.49" ry="18"/>
<text text-anchor="middle" x="543" y="-99.8" font-family="Times,serif" font-size="14.00">RefreshStrategy</text>
</g>
<!-- RefreshStrategy&#45;&gt;AuthModule -->
<g id="edge6" class="edge">
<title>RefreshStrategy&#45;&gt;AuthModule</title>
<path fill="none" stroke="black" d="M596.74,-116.53C596.74,-116.53 596.74,-140.85 596.74,-140.85"/>
<polygon fill="black" stroke="black" points="593.24,-140.85 596.74,-150.85 600.24,-140.85 593.24,-140.85"/>
</g>
<!-- TokenService -->
<g id="node8" class="node">
<title>TokenService</title>
<ellipse fill="#fdb462" stroke="black" cx="387" cy="-104" rx="64.83" ry="18"/>
<text text-anchor="middle" x="387" y="-99.8" font-family="Times,serif" font-size="14.00">TokenService</text>
</g>
<!-- TokenService&#45;&gt;AuthModule -->
<g id="edge7" class="edge">
<title>TokenService&#45;&gt;AuthModule</title>
<path fill="none" stroke="black" d="M387,-122.03C387,-138.4 387,-160 387,-160 387,-160 567.26,-160 567.26,-160"/>
<polygon fill="black" stroke="black" points="567.26,-163.5 577.26,-160 567.26,-156.5 567.26,-163.5"/>
</g>
<!-- VKIDService -->
<g id="node9" class="node">
<title>VKIDService</title>
<ellipse fill="#fdb462" stroke="black" cx="240" cy="-104" rx="64.24" ry="18"/>
<text text-anchor="middle" x="240" y="-99.8" font-family="Times,serif" font-size="14.00">VKIDService</text>
</g>
<!-- VKIDService&#45;&gt;AuthModule -->
<g id="edge8" class="edge">
<title>VKIDService&#45;&gt;AuthModule</title>
<path fill="none" stroke="black" d="M240,-122.11C240,-141.34 240,-169 240,-169 240,-169 567.29,-169 567.29,-169"/>
<polygon fill="black" stroke="black" points="567.29,-172.5 577.29,-169 567.29,-165.5 567.29,-172.5"/>
</g>
<!-- VKIDStrategy -->
<g id="node10" class="node">
<title>VKIDStrategy</title>
<ellipse fill="#fdb462" stroke="black" cx="91" cy="-104" rx="67.19" ry="18"/>
<text text-anchor="middle" x="91" y="-99.8" font-family="Times,serif" font-size="14.00">VKIDStrategy</text>
</g>
<!-- VKIDStrategy&#45;&gt;AuthModule -->
<g id="edge9" class="edge">
<title>VKIDStrategy&#45;&gt;AuthModule</title>
<path fill="none" stroke="black" d="M91,-122.29C91,-144.21 91,-178 91,-178 91,-178 567.18,-178 567.18,-178"/>
<polygon fill="black" stroke="black" points="567.18,-181.5 577.18,-178 567.18,-174.5 567.18,-181.5"/>
</g>
</g>
</svg>
