<?xml version="1.0" encoding="UTF-8" standalone="no"?>
<!DOCTYPE svg PUBLIC "-//W3C//DTD SVG 1.1//EN"
 "http://www.w3.org/Graphics/SVG/1.1/DTD/svg11.dtd">
<!-- Generated by graphviz version 2.47.0 (20210316.0004)
 -->
<!-- Title: dependencies Pages: 1 -->
<svg width="1194pt" height="284pt"
 viewBox="0.00 0.00 1194.00 284.00" xmlns="http://www.w3.org/2000/svg" xmlns:xlink="http://www.w3.org/1999/xlink">
<g id="graph0" class="graph" transform="scale(1 1) rotate(0) translate(4 280)">
<title>dependencies</title>
<polygon fill="white" stroke="transparent" points="-4,4 -4,-280 1190,-280 1190,4 -4,4"/>
<text text-anchor="start" x="572.01" y="-42.4" font-family="Times-12" font-weight="bold" font-size="14.00">Legend</text>
<polygon fill="#ffffb3" stroke="transparent" points="359,-10 359,-30 379,-30 379,-10 359,-10"/>
<text text-anchor="start" x="382.63" y="-15.4" font-family="Times-12" font-size="14.00"> &#160;Declarations</text>
<polygon fill="#8dd3c7" stroke="transparent" points="472,-10 472,-30 492,-30 492,-10 472,-10"/>
<text text-anchor="start" x="495.73" y="-15.4" font-family="Times-12" font-size="14.00"> &#160;Module</text>
<polygon fill="#80b1d3" stroke="transparent" points="558,-10 558,-30 578,-30 578,-10 558,-10"/>
<text text-anchor="start" x="581.78" y="-15.4" font-family="Times-12" font-size="14.00"> &#160;Bootstrap</text>
<polygon fill="#fdb462" stroke="transparent" points="655,-10 655,-30 675,-30 675,-10 655,-10"/>
<text text-anchor="start" x="678.67" y="-15.4" font-family="Times-12" font-size="14.00"> &#160;Providers</text>
<polygon fill="#fb8072" stroke="transparent" points="751,-10 751,-30 771,-30 771,-10 751,-10"/>
<text text-anchor="start" x="774.73" y="-15.4" font-family="Times-12" font-size="14.00"> &#160;Exports</text>
<g id="clust1" class="cluster">
<title>cluster_AuthModule</title>
<polygon fill="none" stroke="black" stroke-dasharray="1,5" points="8,-70 8,-268 1178,-268 1178,-70 8,-70"/>
</g>
<g id="clust4" class="cluster">
<title>cluster_AuthModule_exports</title>
<polygon fill="none" stroke="black" points="542,-208 542,-260 648,-260 648,-208 542,-208"/>
</g>
<g id="clust6" class="cluster">
<title>cluster_AuthModule_providers</title>
<polygon fill="none" stroke="black" points="146,-78 146,-130 1170,-130 1170,-78 146,-78"/>
</g>
<g id="clust3" class="cluster">
<title>cluster_AuthModule_imports</title>
<polygon fill="none" stroke="black" points="16,-78 16,-130 138,-130 138,-78 16,-78"/>
</g>
<!-- AccountModule -->
<g id="node1" class="node">
<title>AccountModule</title>
<polygon fill="#8dd3c7" stroke="black" points="130.48,-122 127.48,-126 106.48,-126 103.48,-122 23.52,-122 23.52,-86 130.48,-86 130.48,-122"/>
<text text-anchor="middle" x="77" y="-99.8" font-family="Times,serif" font-size="14.00">AccountModule</text>
</g>
<!-- AuthModule -->
<g id="node2" class="node">
<title>AuthModule</title>
<polygon fill="#8dd3c7" stroke="black" points="638.55,-187 635.55,-191 614.55,-191 611.55,-187 551.45,-187 551.45,-151 638.55,-151 638.55,-187"/>
<text text-anchor="middle" x="595" y="-164.8" font-family="Times,serif" font-size="14.00">AuthModule</text>
</g>
<!-- AccountModule&#45;&gt;AuthModule -->
<g id="edge1" class="edge">
<title>AccountModule&#45;&gt;AuthModule</title>
<path fill="none" stroke="black" d="M77,-122.29C77,-144.21 77,-178 77,-178 77,-178 541.28,-178 541.28,-178"/>
<polygon fill="black" stroke="black" points="541.28,-181.5 551.28,-178 541.28,-174.5 541.28,-181.5"/>
</g>
<!-- AuthService  -->
<g id="node3" class="node">
<title>AuthService </title>
<polygon fill="#fb8072" stroke="black" points="639.98,-252 550.02,-252 550.02,-216 639.98,-216 639.98,-252"/>
<text text-anchor="middle" x="595" y="-229.8" font-family="Times,serif" font-size="14.00">AuthService </text>
</g>
<!-- AuthModule&#45;&gt;AuthService  -->
<g id="edge2" class="edge">
<title>AuthModule&#45;&gt;AuthService </title>
<path fill="none" stroke="black" stroke-dasharray="5,2" d="M595,-187.11C595,-187.11 595,-205.99 595,-205.99"/>
<polygon fill="black" stroke="black" points="591.5,-205.99 595,-215.99 598.5,-205.99 591.5,-205.99"/>
</g>
<!-- AuthService -->
<g id="node4" class="node">
<title>AuthService</title>
<ellipse fill="#fdb462" stroke="black" cx="1103" cy="-104" rx="59.11" ry="18"/>
<text text-anchor="middle" x="1103" y="-99.8" font-family="Times,serif" font-size="14.00">AuthService</text>
</g>
<!-- AuthService&#45;&gt;AuthModule -->
<g id="edge3" class="edge">
<title>AuthService&#45;&gt;AuthModule</title>
<path fill="none" stroke="black" d="M1103,-122.29C1103,-144.21 1103,-178 1103,-178 1103,-178 648.75,-178 648.75,-178"/>
<polygon fill="black" stroke="black" points="648.75,-174.5 638.75,-178 648.75,-181.5 648.75,-174.5"/>
</g>
<!-- JwtStrategy -->
<g id="node5" class="node">
<title>JwtStrategy</title>
<ellipse fill="#fdb462" stroke="black" cx="969" cy="-104" rx="56.76" ry="18"/>
<text text-anchor="middle" x="969" y="-99.8" font-family="Times,serif" font-size="14.00">JwtStrategy</text>
</g>
<!-- JwtStrategy&#45;&gt;AuthModule -->
<g id="edge4" class="edge">
<title>JwtStrategy&#45;&gt;AuthModule</title>
<path fill="none" stroke="black" d="M969,-122.11C969,-141.34 969,-169 969,-169 969,-169 648.63,-169 648.63,-169"/>
<polygon fill="black" stroke="black" points="648.63,-165.5 638.63,-169 648.63,-172.5 648.63,-165.5"/>
</g>
<!-- LocalStrategy -->
<g id="node6" class="node">
<title>LocalStrategy</title>
<ellipse fill="#fdb462" stroke="black" cx="829" cy="-104" rx="65.41" ry="18"/>
<text text-anchor="middle" x="829" y="-99.8" font-family="Times,serif" font-size="14.00">LocalStrategy</text>
</g>
<!-- LocalStrategy&#45;&gt;AuthModule -->
<g id="edge5" class="edge">
<title>LocalStrategy&#45;&gt;AuthModule</title>
<path fill="none" stroke="black" d="M829,-122.03C829,-138.4 829,-160 829,-160 829,-160 648.74,-160 648.74,-160"/>
<polygon fill="black" stroke="black" points="648.74,-156.5 638.74,-160 648.74,-163.5 648.74,-156.5"/>
</g>
<!-- RefreshStrategy -->
<g id="node7" class="node">
<title>RefreshStrategy</title>
<ellipse fill="#fdb462" stroke="black" cx="673" cy="-104" rx="73.49" ry="18"/>
<text text-anchor="middle" x="673" y="-99.8" font-family="Times,serif" font-size="14.00">RefreshStrategy</text>
</g>
<!-- RefreshStrategy&#45;&gt;AuthModule -->
<g id="edge6" class="edge">
<title>RefreshStrategy&#45;&gt;AuthModule</title>
<path fill="none" stroke="black" d="M619.26,-116.53C619.26,-116.53 619.26,-140.85 619.26,-140.85"/>
<polygon fill="black" stroke="black" points="615.76,-140.85 619.26,-150.85 622.76,-140.85 615.76,-140.85"/>
</g>
<!-- TokenService -->
<g id="node8" class="node">
<title>TokenService</title>
<ellipse fill="#fdb462" stroke="black" cx="517" cy="-104" rx="64.83" ry="18"/>
<text text-anchor="middle" x="517" y="-99.8" font-family="Times,serif" font-size="14.00">TokenService</text>
</g>
<!-- TokenService&#45;&gt;AuthModule -->
<g id="edge7" class="edge">
<title>TokenService&#45;&gt;AuthModule</title>
<path fill="none" stroke="black" d="M566.44,-115.62C566.44,-115.62 566.44,-140.85 566.44,-140.85"/>
<polygon fill="black" stroke="black" points="562.95,-140.85 566.44,-150.85 569.95,-140.85 562.95,-140.85"/>
</g>
<!-- VKIDService -->
<g id="node9" class="node">
<title>VKIDService</title>
<ellipse fill="#fdb462" stroke="black" cx="370" cy="-104" rx="64.24" ry="18"/>
<text text-anchor="middle" x="370" y="-99.8" font-family="Times,serif" font-size="14.00">VKIDService</text>
</g>
<!-- VKIDService&#45;&gt;AuthModule -->
<g id="edge8" class="edge">
<title>VKIDService&#45;&gt;AuthModule</title>
<path fill="none" stroke="black" d="M370,-122.03C370,-138.4 370,-160 370,-160 370,-160 541.35,-160 541.35,-160"/>
<polygon fill="black" stroke="black" points="541.35,-163.5 551.35,-160 541.35,-156.5 541.35,-163.5"/>
</g>
<!-- VKIDStrategy -->
<g id="node10" class="node">
<title>VKIDStrategy</title>
<ellipse fill="#fdb462" stroke="black" cx="221" cy="-104" rx="67.19" ry="18"/>
<text text-anchor="middle" x="221" y="-99.8" font-family="Times,serif" font-size="14.00">VKIDStrategy</text>
</g>
<!-- VKIDStrategy&#45;&gt;AuthModule -->
<g id="edge9" class="edge">
<title>VKIDStrategy&#45;&gt;AuthModule</title>
<path fill="none" stroke="black" d="M221,-122.11C221,-141.34 221,-169 221,-169 221,-169 541.37,-169 541.37,-169"/>
<polygon fill="black" stroke="black" points="541.37,-172.5 551.37,-169 541.37,-165.5 541.37,-172.5"/>
</g>
</g>
</svg>
