<?xml version="1.0" encoding="UTF-8" standalone="no"?>
<!DOCTYPE svg PUBLIC "-//W3C//DTD SVG 1.1//EN"
 "http://www.w3.org/Graphics/SVG/1.1/DTD/svg11.dtd">
<!-- Generated by graphviz version 2.47.0 (20210316.0004)
 -->
<!-- Title: dependencies Pages: 1 -->
<svg width="504pt" height="284pt"
 viewBox="0.00 0.00 504.00 284.00" xmlns="http://www.w3.org/2000/svg" xmlns:xlink="http://www.w3.org/1999/xlink">
<g id="graph0" class="graph" transform="scale(1 1) rotate(0) translate(4 280)">
<title>dependencies</title>
<polygon fill="white" stroke="transparent" points="-4,4 -4,-280 500,-280 500,4 -4,4"/>
<text text-anchor="start" x="227.01" y="-42.4" font-family="Times-12" font-weight="bold" font-size="14.00">Legend</text>
<polygon fill="#ffffb3" stroke="transparent" points="14,-10 14,-30 34,-30 34,-10 14,-10"/>
<text text-anchor="start" x="37.63" y="-15.4" font-family="Times-12" font-size="14.00"> &#160;Declarations</text>
<polygon fill="#8dd3c7" stroke="transparent" points="127,-10 127,-30 147,-30 147,-10 127,-10"/>
<text text-anchor="start" x="150.73" y="-15.4" font-family="Times-12" font-size="14.00"> &#160;Module</text>
<polygon fill="#80b1d3" stroke="transparent" points="213,-10 213,-30 233,-30 233,-10 213,-10"/>
<text text-anchor="start" x="236.78" y="-15.4" font-family="Times-12" font-size="14.00"> &#160;Bootstrap</text>
<polygon fill="#fdb462" stroke="transparent" points="310,-10 310,-30 330,-30 330,-10 310,-10"/>
<text text-anchor="start" x="333.67" y="-15.4" font-family="Times-12" font-size="14.00"> &#160;Providers</text>
<polygon fill="#fb8072" stroke="transparent" points="406,-10 406,-30 426,-30 426,-10 406,-10"/>
<text text-anchor="start" x="429.73" y="-15.4" font-family="Times-12" font-size="14.00"> &#160;Exports</text>
<g id="clust1" class="cluster">
<title>cluster_CoreModule</title>
<polygon fill="none" stroke="black" stroke-dasharray="1,5" points="72,-70 72,-268 424,-268 424,-70 72,-70"/>
</g>
<g id="clust4" class="cluster">
<title>cluster_CoreModule_exports</title>
<polygon fill="none" stroke="black" points="80,-208 80,-260 416,-260 416,-208 80,-208"/>
</g>
<g id="clust6" class="cluster">
<title>cluster_CoreModule_providers</title>
<polygon fill="none" stroke="black" points="218,-78 218,-130 400,-130 400,-78 218,-78"/>
</g>
<g id="clust3" class="cluster">
<title>cluster_CoreModule_imports</title>
<polygon fill="none" stroke="black" points="96,-78 96,-130 210,-130 210,-78 96,-78"/>
</g>
<!-- ConfigModule -->
<g id="node1" class="node">
<title>ConfigModule</title>
<polygon fill="#8dd3c7" stroke="black" points="202.44,-122 199.44,-126 178.44,-126 175.44,-122 103.56,-122 103.56,-86 202.44,-86 202.44,-122"/>
<text text-anchor="middle" x="153" y="-99.8" font-family="Times,serif" font-size="14.00">ConfigModule</text>
</g>
<!-- CoreModule -->
<g id="node2" class="node">
<title>CoreModule</title>
<polygon fill="#8dd3c7" stroke="black" points="279.26,-187 276.26,-191 255.26,-191 252.26,-187 192.74,-187 192.74,-151 279.26,-151 279.26,-187"/>
<text text-anchor="middle" x="236" y="-164.8" font-family="Times,serif" font-size="14.00">CoreModule</text>
</g>
<!-- ConfigModule&#45;&gt;CoreModule -->
<g id="edge1" class="edge">
<title>ConfigModule&#45;&gt;CoreModule</title>
<path fill="none" stroke="black" d="M197.42,-122.11C197.42,-122.11 197.42,-140.99 197.42,-140.99"/>
<polygon fill="black" stroke="black" points="193.92,-140.99 197.42,-150.99 200.92,-140.99 193.92,-140.99"/>
</g>
<!-- AppConfigService  -->
<g id="node3" class="node">
<title>AppConfigService </title>
<polygon fill="#fb8072" stroke="black" points="408.47,-252 283.53,-252 283.53,-216 408.47,-216 408.47,-252"/>
<text text-anchor="middle" x="346" y="-229.8" font-family="Times,serif" font-size="14.00">AppConfigService </text>
</g>
<!-- CoreModule&#45;&gt;AppConfigService  -->
<g id="edge2" class="edge">
<title>CoreModule&#45;&gt;AppConfigService </title>
<path fill="none" stroke="black" stroke-dasharray="5,2" d="M272.67,-187.11C272.67,-206.34 272.67,-234 272.67,-234 272.67,-234 273.75,-234 273.75,-234"/>
<polygon fill="black" stroke="black" points="273.49,-237.5 283.49,-234 273.49,-230.5 273.49,-237.5"/>
</g>
<!-- Logger  -->
<g id="node4" class="node">
<title>Logger </title>
<polygon fill="#fb8072" stroke="black" points="265.93,-252 206.07,-252 206.07,-216 265.93,-216 265.93,-252"/>
<text text-anchor="middle" x="236" y="-229.8" font-family="Times,serif" font-size="14.00">Logger </text>
</g>
<!-- CoreModule&#45;&gt;Logger  -->
<g id="edge3" class="edge">
<title>CoreModule&#45;&gt;Logger </title>
<path fill="none" stroke="black" stroke-dasharray="5,2" d="M236,-187.11C236,-187.11 236,-205.99 236,-205.99"/>
<polygon fill="black" stroke="black" points="232.5,-205.99 236,-215.99 239.5,-205.99 232.5,-205.99"/>
</g>
<!-- PrismaService  -->
<g id="node5" class="node">
<title>PrismaService </title>
<polygon fill="#fb8072" stroke="black" points="188.36,-252 87.64,-252 87.64,-216 188.36,-216 188.36,-252"/>
<text text-anchor="middle" x="138" y="-229.8" font-family="Times,serif" font-size="14.00">PrismaService </text>
</g>
<!-- CoreModule&#45;&gt;PrismaService  -->
<g id="edge4" class="edge">
<title>CoreModule&#45;&gt;PrismaService </title>
<path fill="none" stroke="black" stroke-dasharray="5,2" d="M199.33,-187.11C199.33,-206.34 199.33,-234 199.33,-234 199.33,-234 198.23,-234 198.23,-234"/>
<polygon fill="black" stroke="black" points="198.36,-230.5 188.36,-234 198.36,-237.5 198.36,-230.5"/>
</g>
<!-- AppConfigService -->
<g id="node6" class="node">
<title>AppConfigService</title>
<ellipse fill="#fdb462" stroke="black" cx="309" cy="-104" rx="83.39" ry="18"/>
<text text-anchor="middle" x="309" y="-99.8" font-family="Times,serif" font-size="14.00">AppConfigService</text>
</g>
<!-- AppConfigService&#45;&gt;CoreModule -->
<g id="edge5" class="edge">
<title>AppConfigService&#45;&gt;CoreModule</title>
<path fill="none" stroke="black" d="M252.47,-117.47C252.47,-117.47 252.47,-140.86 252.47,-140.86"/>
<polygon fill="black" stroke="black" points="248.97,-140.86 252.47,-150.86 255.97,-140.86 248.97,-140.86"/>
</g>
</g>
</svg>
