<?xml version="1.0" encoding="UTF-8" standalone="no"?>
<!DOCTYPE svg PUBLIC "-//W3C//DTD SVG 1.1//EN"
 "http://www.w3.org/Graphics/SVG/1.1/DTD/svg11.dtd">
<!-- Generated by graphviz version 2.47.0 (20210316.0004)
 -->
<!-- Title: dependencies Pages: 1 -->
<svg width="704pt" height="290pt"
 viewBox="0.00 0.00 704.00 290.00" xmlns="http://www.w3.org/2000/svg" xmlns:xlink="http://www.w3.org/1999/xlink">
<g id="graph0" class="graph" transform="scale(1 1) rotate(0) translate(4 286)">
<title>dependencies</title>
<polygon fill="white" stroke="transparent" points="-4,4 -4,-286 700,-286 700,4 -4,4"/>
<text text-anchor="start" x="327.01" y="-42.4" font-family="Times-12" font-weight="bold" font-size="14.00">Legend</text>
<polygon fill="#ffffb3" stroke="transparent" points="114,-10 114,-30 134,-30 134,-10 114,-10"/>
<text text-anchor="start" x="137.63" y="-15.4" font-family="Times-12" font-size="14.00"> &#160;Declarations</text>
<polygon fill="#8dd3c7" stroke="transparent" points="227,-10 227,-30 247,-30 247,-10 227,-10"/>
<text text-anchor="start" x="250.73" y="-15.4" font-family="Times-12" font-size="14.00"> &#160;Module</text>
<polygon fill="#80b1d3" stroke="transparent" points="313,-10 313,-30 333,-30 333,-10 313,-10"/>
<text text-anchor="start" x="336.78" y="-15.4" font-family="Times-12" font-size="14.00"> &#160;Bootstrap</text>
<polygon fill="#fdb462" stroke="transparent" points="410,-10 410,-30 430,-30 430,-10 410,-10"/>
<text text-anchor="start" x="433.67" y="-15.4" font-family="Times-12" font-size="14.00"> &#160;Providers</text>
<polygon fill="#fb8072" stroke="transparent" points="506,-10 506,-30 526,-30 526,-10 506,-10"/>
<text text-anchor="start" x="529.73" y="-15.4" font-family="Times-12" font-size="14.00"> &#160;Exports</text>
<g id="clust1" class="cluster">
<title>cluster_AccountModule</title>
<polygon fill="none" stroke="black" stroke-dasharray="1,5" points="8,-70 8,-198 186,-198 186,-70 8,-70"/>
</g>
<g id="clust6" class="cluster">
<title>cluster_AccountModule_providers</title>
<polygon fill="none" stroke="black" points="16,-78 16,-130 178,-130 178,-78 16,-78"/>
</g>
<g id="clust7" class="cluster">
<title>cluster_AppModule</title>
<polygon fill="none" stroke="black" stroke-dasharray="1,5" points="194,-138 194,-266 312,-266 312,-138 194,-138"/>
</g>
<g id="clust9" class="cluster">
<title>cluster_AppModule_imports</title>
<polygon fill="none" stroke="black" points="202,-146 202,-198 304,-198 304,-146 202,-146"/>
</g>
<g id="clust13" class="cluster">
<title>cluster_CoreModule</title>
<polygon fill="none" stroke="black" stroke-dasharray="1,5" points="320,-206 320,-274 688,-274 688,-206 320,-206"/>
</g>
<g id="clust16" class="cluster">
<title>cluster_CoreModule_exports</title>
<polygon fill="none" stroke="black" points="486,-214 486,-266 680,-266 680,-214 486,-214"/>
</g>
<g id="clust18" class="cluster">
<title>cluster_CoreModule_providers</title>
<polygon fill="none" stroke="black" points="328,-214 328,-266 478,-266 478,-214 328,-214"/>
</g>
<!-- AccountService -->
<g id="node1" class="node">
<title>AccountService</title>
<ellipse fill="#fdb462" stroke="black" cx="97" cy="-104" rx="72.91" ry="18"/>
<text text-anchor="middle" x="97" y="-99.8" font-family="Times,serif" font-size="14.00">AccountService</text>
</g>
<!-- AccountModule -->
<g id="node2" class="node">
<title>AccountModule</title>
<polygon fill="#8dd3c7" stroke="black" points="164.48,-190 161.48,-194 140.48,-194 137.48,-190 57.52,-190 57.52,-154 164.48,-154 164.48,-190"/>
<text text-anchor="middle" x="111" y="-167.8" font-family="Times,serif" font-size="14.00">AccountModule</text>
</g>
<!-- AccountService&#45;&gt;AccountModule -->
<g id="edge1" class="edge">
<title>AccountService&#45;&gt;AccountModule</title>
<path fill="none" stroke="black" d="M111,-121.87C111,-121.87 111,-143.54 111,-143.54"/>
<polygon fill="black" stroke="black" points="107.5,-143.54 111,-153.54 114.5,-143.54 107.5,-143.54"/>
</g>
<!-- AppModule -->
<g id="node4" class="node">
<title>AppModule</title>
<polygon fill="#8dd3c7" stroke="black" points="289.66,-258 286.66,-262 265.66,-262 262.66,-258 206.34,-258 206.34,-222 289.66,-222 289.66,-258"/>
<text text-anchor="middle" x="248" y="-235.8" font-family="Times,serif" font-size="14.00">AppModule</text>
</g>
<!-- AccountModule&#45;&gt;AppModule -->
<g id="edge2" class="edge">
<title>AccountModule&#45;&gt;AppModule</title>
<path fill="none" stroke="black" d="M111,-190.22C111,-210.37 111,-240 111,-240 111,-240 196.15,-240 196.15,-240"/>
<polygon fill="black" stroke="black" points="196.15,-243.5 206.15,-240 196.15,-236.5 196.15,-243.5"/>
</g>
<!-- CoreModule -->
<g id="node3" class="node">
<title>CoreModule</title>
<polygon fill="#8dd3c7" stroke="black" points="296.26,-190 293.26,-194 272.26,-194 269.26,-190 209.74,-190 209.74,-154 296.26,-154 296.26,-190"/>
<text text-anchor="middle" x="253" y="-167.8" font-family="Times,serif" font-size="14.00">CoreModule</text>
</g>
<!-- CoreModule&#45;&gt;AppModule -->
<g id="edge3" class="edge">
<title>CoreModule&#45;&gt;AppModule</title>
<path fill="none" stroke="black" d="M249.72,-190.22C249.72,-190.22 249.72,-211.73 249.72,-211.73"/>
<polygon fill="black" stroke="black" points="246.22,-211.73 249.72,-221.73 253.22,-211.73 246.22,-211.73"/>
</g>
<!-- ConfigService  -->
<g id="node5" class="node">
<title>ConfigService </title>
<polygon fill="#fb8072" stroke="black" points="672.37,-258 571.63,-258 571.63,-222 672.37,-222 672.37,-258"/>
<text text-anchor="middle" x="622" y="-235.8" font-family="Times,serif" font-size="14.00">ConfigService </text>
</g>
<!-- CoreModule&#45;&gt;ConfigService  -->
<g id="edge4" class="edge">
<title>CoreModule&#45;&gt;ConfigService </title>
<path fill="none" stroke="black" stroke-dasharray="5,2" d="M296.41,-163C393.96,-163 622,-163 622,-163 622,-163 622,-211.75 622,-211.75"/>
<polygon fill="black" stroke="black" points="618.5,-211.75 622,-221.75 625.5,-211.75 618.5,-211.75"/>
</g>
<!-- Logger  -->
<g id="node6" class="node">
<title>Logger </title>
<polygon fill="#fb8072" stroke="black" points="553.93,-258 494.07,-258 494.07,-222 553.93,-222 553.93,-258"/>
<text text-anchor="middle" x="524" y="-235.8" font-family="Times,serif" font-size="14.00">Logger </text>
</g>
<!-- CoreModule&#45;&gt;Logger  -->
<g id="edge5" class="edge">
<title>CoreModule&#45;&gt;Logger </title>
<path fill="none" stroke="black" stroke-dasharray="5,2" d="M296.54,-172C373.15,-172 524,-172 524,-172 524,-172 524,-211.78 524,-211.78"/>
<polygon fill="black" stroke="black" points="520.5,-211.78 524,-221.78 527.5,-211.78 520.5,-211.78"/>
</g>
<!-- ConfigService -->
<g id="node7" class="node">
<title>ConfigService</title>
<ellipse fill="#fdb462" stroke="black" cx="403" cy="-240" rx="66.63" ry="18"/>
<text text-anchor="middle" x="403" y="-235.8" font-family="Times,serif" font-size="14.00">ConfigService</text>
</g>
<!-- ConfigService&#45;&gt;CoreModule -->
<g id="edge6" class="edge">
<title>ConfigService&#45;&gt;CoreModule</title>
<path fill="none" stroke="black" d="M403,-221.98C403,-204.63 403,-181 403,-181 403,-181 306.39,-181 306.39,-181"/>
<polygon fill="black" stroke="black" points="306.39,-177.5 296.39,-181 306.39,-184.5 306.39,-177.5"/>
</g>
</g>
</svg>
