<?xml version="1.0" encoding="UTF-8" standalone="no"?>
<!DOCTYPE svg PUBLIC "-//W3C//DTD SVG 1.1//EN"
 "http://www.w3.org/Graphics/SVG/1.1/DTD/svg11.dtd">
<!-- Generated by graphviz version 2.47.0 (20210316.0004)
 -->
<!-- Title: dependencies Pages: 1 -->
<svg width="604pt" height="211pt"
 viewBox="0.00 0.00 604.00 211.00" xmlns="http://www.w3.org/2000/svg" xmlns:xlink="http://www.w3.org/1999/xlink">
<g id="graph0" class="graph" transform="scale(1 1) rotate(0) translate(4 207)">
<title>dependencies</title>
<polygon fill="white" stroke="transparent" points="-4,4 -4,-207 600,-207 600,4 -4,4"/>
<text text-anchor="start" x="277.01" y="-42.4" font-family="Times-12" font-weight="bold" font-size="14.00">Legend</text>
<polygon fill="#ffffb3" stroke="transparent" points="64,-10 64,-30 84,-30 84,-10 64,-10"/>
<text text-anchor="start" x="87.63" y="-15.4" font-family="Times-12" font-size="14.00"> &#160;Declarations</text>
<polygon fill="#8dd3c7" stroke="transparent" points="177,-10 177,-30 197,-30 197,-10 177,-10"/>
<text text-anchor="start" x="200.73" y="-15.4" font-family="Times-12" font-size="14.00"> &#160;Module</text>
<polygon fill="#80b1d3" stroke="transparent" points="263,-10 263,-30 283,-30 283,-10 263,-10"/>
<text text-anchor="start" x="286.78" y="-15.4" font-family="Times-12" font-size="14.00"> &#160;Bootstrap</text>
<polygon fill="#fdb462" stroke="transparent" points="360,-10 360,-30 380,-30 380,-10 360,-10"/>
<text text-anchor="start" x="383.67" y="-15.4" font-family="Times-12" font-size="14.00"> &#160;Providers</text>
<polygon fill="#fb8072" stroke="transparent" points="456,-10 456,-30 476,-30 476,-10 456,-10"/>
<text text-anchor="start" x="479.73" y="-15.4" font-family="Times-12" font-size="14.00"> &#160;Exports</text>
<g id="clust1" class="cluster">
<title>cluster_AppModule</title>
<polygon fill="none" stroke="black" stroke-dasharray="1,5" points="8,-70 8,-195 588,-195 588,-70 8,-70"/>
</g>
<g id="clust3" class="cluster">
<title>cluster_AppModule_imports</title>
<polygon fill="none" stroke="black" points="16,-78 16,-130 580,-130 580,-78 16,-78"/>
</g>
<!-- AccountModule -->
<g id="node1" class="node">
<title>AccountModule</title>
<polygon fill="#8dd3c7" stroke="black" points="572.48,-122 569.48,-126 548.48,-126 545.48,-122 465.52,-122 465.52,-86 572.48,-86 572.48,-122"/>
<text text-anchor="middle" x="519" y="-99.8" font-family="Times,serif" font-size="14.00">AccountModule</text>
</g>
<!-- AppModule -->
<g id="node6" class="node">
<title>AppModule</title>
<polygon fill="#8dd3c7" stroke="black" points="340.66,-187 337.66,-191 316.66,-191 313.66,-187 257.34,-187 257.34,-151 340.66,-151 340.66,-187"/>
<text text-anchor="middle" x="299" y="-164.8" font-family="Times,serif" font-size="14.00">AppModule</text>
</g>
<!-- AccountModule&#45;&gt;AppModule -->
<g id="edge1" class="edge">
<title>AccountModule&#45;&gt;AppModule</title>
<path fill="none" stroke="black" d="M519,-122.28C519,-143.32 519,-175 519,-175 519,-175 350.9,-175 350.9,-175"/>
<polygon fill="black" stroke="black" points="350.9,-171.5 340.9,-175 350.9,-178.5 350.9,-171.5"/>
</g>
<!-- AuthModule -->
<g id="node2" class="node">
<title>AuthModule</title>
<polygon fill="#8dd3c7" stroke="black" points="447.55,-122 444.55,-126 423.55,-126 420.55,-122 360.45,-122 360.45,-86 447.55,-86 447.55,-122"/>
<text text-anchor="middle" x="404" y="-99.8" font-family="Times,serif" font-size="14.00">AuthModule</text>
</g>
<!-- AuthModule&#45;&gt;AppModule -->
<g id="edge2" class="edge">
<title>AuthModule&#45;&gt;AppModule</title>
<path fill="none" stroke="black" d="M404,-122.02C404,-139.37 404,-163 404,-163 404,-163 350.8,-163 350.8,-163"/>
<polygon fill="black" stroke="black" points="350.8,-159.5 340.8,-163 350.8,-166.5 350.8,-159.5"/>
</g>
<!-- CoreModule -->
<g id="node3" class="node">
<title>CoreModule</title>
<polygon fill="#8dd3c7" stroke="black" points="342.26,-122 339.26,-126 318.26,-126 315.26,-122 255.74,-122 255.74,-86 342.26,-86 342.26,-122"/>
<text text-anchor="middle" x="299" y="-99.8" font-family="Times,serif" font-size="14.00">CoreModule</text>
</g>
<!-- CoreModule&#45;&gt;AppModule -->
<g id="edge3" class="edge">
<title>CoreModule&#45;&gt;AppModule</title>
<path fill="none" stroke="black" d="M299,-122.11C299,-122.11 299,-140.99 299,-140.99"/>
<polygon fill="black" stroke="black" points="295.5,-140.99 299,-150.99 302.5,-140.99 295.5,-140.99"/>
</g>
<!-- UploadModule -->
<g id="node4" class="node">
<title>UploadModule</title>
<polygon fill="#8dd3c7" stroke="black" points="237.26,-122 234.26,-126 213.26,-126 210.26,-122 136.74,-122 136.74,-86 237.26,-86 237.26,-122"/>
<text text-anchor="middle" x="187" y="-99.8" font-family="Times,serif" font-size="14.00">UploadModule</text>
</g>
<!-- UploadModule&#45;&gt;AppModule -->
<g id="edge4" class="edge">
<title>UploadModule&#45;&gt;AppModule</title>
<path fill="none" stroke="black" d="M187,-122.02C187,-139.37 187,-163 187,-163 187,-163 247.3,-163 247.3,-163"/>
<polygon fill="black" stroke="black" points="247.3,-166.5 257.3,-163 247.3,-159.5 247.3,-166.5"/>
</g>
<!-- VKIDModule -->
<g id="node5" class="node">
<title>VKIDModule</title>
<polygon fill="#8dd3c7" stroke="black" points="118.03,-122 115.03,-126 94.03,-126 91.03,-122 23.97,-122 23.97,-86 118.03,-86 118.03,-122"/>
<text text-anchor="middle" x="71" y="-99.8" font-family="Times,serif" font-size="14.00">VKIDModule</text>
</g>
<!-- VKIDModule&#45;&gt;AppModule -->
<g id="edge5" class="edge">
<title>VKIDModule&#45;&gt;AppModule</title>
<path fill="none" stroke="black" d="M71,-122.28C71,-143.32 71,-175 71,-175 71,-175 247.18,-175 247.18,-175"/>
<polygon fill="black" stroke="black" points="247.18,-178.5 257.18,-175 247.18,-171.5 247.18,-178.5"/>
</g>
</g>
</svg>
